<svg xmlns="http://www.w3.org/2000/svg" xmlns:xlink="http://www.w3.org/1999/xlink" width="70.5" height="68.5" viewBox="0 0 70.5 68.5"><style type="text/css">.st0{clip-path:url(#SVGID_2_);fill:#84171A;} .st1{clip-path:url(#SVGID_2_);fill:#33B692;}</style><defs><path id="SVGID_1_" d="M55.4 4h-38.6c-6.6 0-12 5.4-12 12v37.6c0 6.6 5.4 12 12 12h38.6c6.6 0 12-5.4 12-12v-37.6c0-6.6-5.4-12-12-12z"/></defs><clipPath id="SVGID_2_"><use xlink:href="#SVGID_1_" overflow="visible"/></clipPath><path class="st0" d="M67.4 62.8v-56c0-1.6-1.3-2.9-2.9-2.9h-56.9c-1.6.1-2.8 1.3-2.8 2.9v55.9c0 1.6 1.3 2.9 2.9 2.9h31.6v-24.7h-8.2v-8.5h8.2v-9.3c0-5.5 5-9.3 9.1-9.3h9.1v7.8h-4.2c-2.1 0-4.8 1.7-4.8 3.8v7h8.2v8.5h-8.2v24.7h16.1c1.5 0 2.8-1.3 2.8-2.8z"/><path class="st1" d="M67.4 62.8v-56c0-1.6-1.3-2.9-2.9-2.9h-56.9c-1.6.1-2.8 1.3-2.8 2.9v55.9c0 1.6 1.3 2.9 2.9 2.9h31.6v-24.7h-8.2v-8.5h8.2v-9.3c0-5.5 5-9.3 9.1-9.3h9.1v7.8h-4.2c-2.1 0-4.8 1.7-4.8 3.8v7h8.2v8.5h-8.2v24.7h16.1c1.5 0 2.8-1.3 2.8-2.8z"/></svg>