<svg xmlns="http://www.w3.org/2000/svg" width="63.6" height="67.4" viewBox="0 0 63.6 67.4"><style type="text/css">.st0{fill:#FFFFFF;}</style><path class="st0" d="M30.2 41.4h-8c-1.4 0-2.1.7-2.2 2.1-.3 4.8-1.6 9.5-.2 14.4.5 1.5 1.1 3.8-1.6 4.4-3.1.7-4.9-.3-5.4-3.4-.6-3.6-.8-7.2-.9-10.9 0-2.3-.2-3.8-2.8-4.4-1.1-.2-2.6-1.4-2.8-2.3-.3-1.8 1.2-3.2 2.9-3.4 3.1-.5 3.9-2.6 4.1-5.3.5-7.1 2.1-14.1 1.2-21.3-.3-2.8.8-3.7 3.4-3.1 3.8.9 5.4 2.7 5.2 6.7-.3 5-.9 9.9-1.5 14.9-.1 1-.4 2-.5 2.9-.2 3.1.1 3.5 3.2 3.5l14.5-.1c2.4.1 3.3-1.2 3.6-3.2.1-.7.2-1.3.2-2l1.2-20.4v-.5c.2-2 .2-4.3 2.6-4.9 2.3-.5 4.6-.4 6.6 1.4 1.8 1.7 1.8 3.5 1.2 5.8-1.6 6.8-3 13.6-4.2 20.4-.5 2.9 0 3.1 2.9 3.2 1.5.1 3-.2 4.5.1.8.1 2.2 1.1 2.2 1.4-.2 1-.8 2.4-1.6 2.7-1.8.7-3.9.9-5.8 1.2-3.1.4-3.7.7-4 3.9-.4 4.8-.2 9.6 1.9 14.2 1 2.2.7 2.9-1.5 3.6-3.9 1.4-6.7-.3-6.9-4.5-.2-4.3 0-8.7-.1-13-.1-3.7-.3-3.9-4-4-2.4-.1-4.9-.1-7.4-.1z" id="C5rkyt.tif"/></svg>