<svg xmlns="http://www.w3.org/2000/svg" width="435" height="434" viewBox="0 0 435 434"><style type="text/css">.st0{fill:#84181B;} .st1{fill-rule:evenodd;clip-rule:evenodd;fill:#84181B;} .st2{fill:#33B692;} .st3{fill-rule:evenodd;clip-rule:evenodd;fill:#33B692;}</style><path class="st0" d="M97.1 11.9h4.8c2.3.6 2.9 2.2 2.9 4.3v1.9l-.1 38.5c0 14.1 0 28.2-.1 42.3 0 3.9-.1 7.8.1 11.6.1 2.3 1 3.4 3.3 3.4 3.2 0 6.4-.2 9.6-.4 1.8-.2 3-1.3 3.3-3.2.2-1.2.4-2.4.4-3.6.1-4.5.1-9 .1-13.4v-76.8c0-2.7 0-4 3.1-4.8h186.2l1.3.1c11.1 0 22.2.1 33.2.1 5.6 0 11.2.6 16.6 1.9 17.2 4.1 31.4 13.2 42.9 26.5 9.2 10.7 15.3 22.9 17.8 36.8 1.3 7.4 1.5 15 1.6 22.5.1 14.6 0 29.3-.1 43.9 0 2.3-.6 2.9-2.9 2.9h-1.4c-40.8 0-81.5 0-122.3.1-2.7 0-4.8-.8-6.8-2.6-5.4-5.1-11.2-9.6-17.6-13.4-22.7-13.6-47.1-18.4-73.1-13.6-20.3 3.7-37.9 13-53 27-2 1.9-4.2 2.7-6.9 2.7h-123c-2.5 0-3.1-.6-3.1-3.1 0-3.7.1-7.4.1-11-.1-15.5-.7-31 .5-46.5.7-9.4 2.9-18.5 6.8-27 6-13 15.3-23.2 26.5-31.8l.6-.3v.5c0 24.5 0 49-.1 73.4 0 3.4-.1 6.8.1 10.2.1 2.3 1.1 3.3 3.3 3.3 3.1 0 6.2-.1 9.2-.5 2-.2 3-1.4 3.3-3.5.2-1.3.3-2.6.3-3.9v-83c0-.6 0-1.2-.1-1.8-.4-2.8-.2-3.1 2.3-4.3 2.5-1.2 5-2.2 7.7-2.4 2-.1 2.5.4 2.2 2.3-.1.7-.2 1.4-.2 2.1v91.5c0 2.3.9 3.4 3.2 3.4 3 .1 5.9 0 8.9-.2 2.7-.2 3.9-1.4 4.3-4.2.2-1.5.3-3.1.3-4.7.1-14.7.1-29.4.1-44 0-14.6-.1-29.1-.2-43.7.2-4 .6-4.5 4.1-5.5zm220.3 69.4c0 7.6-.1 15.3 0 22.9.2 7.4 5.4 12.4 12.9 12.4h43.3c7.7 0 13.1-5.3 13.1-13 .1-14.8.1-29.6 0-44.4 0-7.7-5.2-13-12.9-13.1-14.6-.1-29.1-.1-43.7 0-7.6.1-12.6 4.9-12.8 12.5-.1 7.5.1 15.1.1 22.7z"/><path class="st1" d="M133.4 159.1c-15.9 23.7-22.7 49.3-18 77.5 4.1 24.6 15.2 45.4 34.1 61.9 37.9 32.9 92.3 35.1 132.1 5.1 22.6-17 36.2-39.7 40.6-67.6 4.4-27.9-2.3-53.4-18.2-76.9h114.9c.7 0 1.4 0 2.2.1 1.7.2 2.7 1.1 2.9 2.8.2 2.3.2 4.7.2 7.1l-.1 51.1c0 41.6 0 83.1-.1 124.7-.1 20.4-7.5 38.1-21.2 53.1-12.1 13.2-27 21.6-44.7 24.8-4.5.8-9.1 1.3-13.6 1.3-83.4.1-166.7.2-250.1 0-37.7-.1-68.9-25.1-77.9-61-1.8-7.1-2.5-14.4-2.5-21.7v-116.3l-.1-59.5c0-.9.1-1.8.1-2.6.3-2.5 1.3-3.6 3.9-3.7 2.6-.1 5.3-.1 7.9-.1 35.3 0 70.6.1 106 .1.4-.2.9-.2 1.6-.2zm85.9-20c44.6 0 80.8 36.3 80.7 81-.1 44.8-36.1 80.7-81.2 80.6-44.7 0-80.8-36.2-80.8-80.9 0-44.5 36.5-80.7 81.3-80.7zm59.6 81.8c.2-33.1-25.6-61-60.4-60.5-33 .5-59.7 27.9-58.7 60.6 1 33 27.6 59.5 61.2 58.6 31.7-.9 58.2-27.6 57.9-58.7z"/><path class="st2" d="M97.1 11.9h4.8c2.3.6 2.9 2.2 2.9 4.3v1.9l-.1 38.5c0 14.1 0 28.2-.1 42.3 0 3.9-.1 7.8.1 11.6.1 2.3 1 3.4 3.3 3.4 3.2 0 6.4-.2 9.6-.4 1.8-.2 3-1.3 3.3-3.2.2-1.2.4-2.4.4-3.6.1-4.5.1-9 .1-13.4v-76.8c0-2.7 0-4 3.1-4.8h186.2l1.3.1c11.1 0 22.2.1 33.2.1 5.6 0 11.2.6 16.6 1.9 17.2 4.1 31.4 13.2 42.9 26.5 9.2 10.7 15.3 22.9 17.8 36.8 1.3 7.4 1.5 15 1.6 22.5.1 14.6 0 29.3-.1 43.9 0 2.3-.6 2.9-2.9 2.9h-1.4c-40.8 0-81.5 0-122.3.1-2.7 0-4.8-.8-6.8-2.6-5.4-5.1-11.2-9.6-17.6-13.4-22.7-13.6-47.1-18.4-73.1-13.6-20.3 3.7-37.9 13-53 27-2 1.9-4.2 2.7-6.9 2.7h-123c-2.5 0-3.1-.6-3.1-3.1 0-3.7.1-7.4.1-11-.1-15.5-.7-31 .5-46.5.7-9.4 2.9-18.5 6.8-27 6-13 15.3-23.2 26.5-31.8l.6-.3v.5c0 24.5 0 49-.1 73.4 0 3.4-.1 6.8.1 10.2.1 2.3 1.1 3.3 3.3 3.3 3.1 0 6.2-.1 9.2-.5 2-.2 3-1.4 3.3-3.5.2-1.3.3-2.6.3-3.9v-83c0-.6 0-1.2-.1-1.8-.4-2.8-.2-3.1 2.3-4.3 2.5-1.2 5-2.2 7.7-2.4 2-.1 2.5.4 2.2 2.3-.1.7-.2 1.4-.2 2.1v91.5c0 2.3.9 3.4 3.2 3.4 3 .1 5.9 0 8.9-.2 2.7-.2 3.9-1.4 4.3-4.2.2-1.5.3-3.1.3-4.7.1-14.7.1-29.4.1-44 0-14.6-.1-29.1-.2-43.7.2-4 .6-4.5 4.1-5.5zm220.3 69.4c0 7.6-.1 15.3 0 22.9.2 7.4 5.4 12.4 12.9 12.4h43.3c7.7 0 13.1-5.3 13.1-13 .1-14.8.1-29.6 0-44.4 0-7.7-5.2-13-12.9-13.1-14.6-.1-29.1-.1-43.7 0-7.6.1-12.6 4.9-12.8 12.5-.1 7.5.1 15.1.1 22.7z"/><path class="st3" d="M133.4 159.1c-15.9 23.7-22.7 49.3-18 77.5 4.1 24.6 15.2 45.4 34.1 61.9 37.9 32.9 92.3 35.1 132.1 5.1 22.6-17 36.2-39.7 40.6-67.6 4.4-27.9-2.3-53.4-18.2-76.9h114.9c.7 0 1.4 0 2.2.1 1.7.2 2.7 1.1 2.9 2.8.2 2.3.2 4.7.2 7.1l-.1 51.1c0 41.6 0 83.1-.1 124.7-.1 20.4-7.5 38.1-21.2 53.1-12.1 13.2-27 21.6-44.7 24.8-4.5.8-9.1 1.3-13.6 1.3-83.4.1-166.7.2-250.1 0-37.7-.1-68.9-25.1-77.9-61-1.8-7.1-2.5-14.4-2.5-21.7v-116.3l-.1-59.5c0-.9.1-1.8.1-2.6.3-2.5 1.3-3.6 3.9-3.7 2.6-.1 5.3-.1 7.9-.1 35.3 0 70.6.1 106 .1.4-.2.9-.2 1.6-.2zm85.9-20c44.6 0 80.8 36.3 80.7 81-.1 44.8-36.1 80.7-81.2 80.6-44.7 0-80.8-36.2-80.8-80.9 0-44.5 36.5-80.7 81.3-80.7zm59.6 81.8c.2-33.1-25.6-61-60.4-60.5-33 .5-59.7 27.9-58.7 60.6 1 33 27.6 59.5 61.2 58.6 31.7-.9 58.2-27.6 57.9-58.7z"/></svg>