<svg xmlns="http://www.w3.org/2000/svg" xmlns:xlink="http://www.w3.org/1999/xlink" width="166.5" height="100.5" viewBox="0 0 166.5 100.5"><style type="text/css">.st0{stroke:#FFFFFF;stroke-miterlimit:10;} .st1{fill:none;stroke:#FFFFFF;stroke-width:5;stroke-miterlimit:10;} .st2{fill:#FFFFFF;}</style><path class="st0" d="M332.3-267.1h16.7v35.6h-16.7zm33.3 0h16.7v35.6h-16.7zm33.3 0h16.7v35.6h-16.7zm-84.2-2l59.2-28 59.3 28zm226.8 103.5h-6.8v18.1l6.8-2.9zm10.9 12.6v-22.2h-6.8v22.6l3.8-1.8zm10.9-12.6h-6.8v14.7l6.8 3zm-13.9-13.2c-7.9 0-14.4 6.4-14.4 14.4h28.8c0-8-6.5-14.4-14.4-14.4z"/><path class="st1" d="M319.2-267.1h107.8m60.6 102.7h107.8"/><path class="st0" d="M430.3-211.1h-112.7l6.7-16.5h98.7z"/><image width="256" height="196" id="Layer_0_1_" xlink:href="4E218794E0E16616.png" transform="translate(14.462 -519.958)" overflow="visible"/><path d="M315.6-355.8s2.4 3.6 3.7 3.6c1.3 0 3.9-3.6 3.9-3.6 2.5-14 2.3-22.4 2.3-22.4 7.9 9.2 5.6 22.4 5.6 22.4s2.1 3.5 3.3 3.6c1.3 0 3.8-3.6 3.8-3.6-1.8-16.5.7-25.3.7-25.3 19.9-2.3 17.8-7 17.8-7 5.1 12.2 5.9 23.6-.7 32.3-.4 3.6 2 3.6 3 3.6 2.1 0 3.8-3.6 3.8-3.6 4.6-11.7 11.2-24.4 11.5-27.2 10.9 10.2 7.3 18.3 4.5 27.2.1 3.6 2.5 3.6 3.4 3.6 3.2.1 4.2-3.6 4.2-3.6s4.6-42.8 1.6-56.6c-.5-2.2-.9-10.4-.9-10.4 5.6.5 4-2.5 4.3 26.9 1 3.8.7 7.4.7 7.4 4.3.3 5.3-3.9 5.3-3.9l-3.1-4.8c.3-14 .6-23.8.6-23.8 0-5.8-3-6.7-8.1-6.7s-75.9 8.8-81 5.5c6.6-3.1 3.9-8.3 3.9-8.3l-8.3 3-3-4.4s-2.7 1.3-4.1 1.5c-2.1.3-13-3.9-13-3.9l11.9 8.2-17.8 16s2 5.2 3.6 6.1c4.5 2.6 20.8 0 20.8 0s8.9 18.4 13.9 19.9c6.9 2.3 1.9 28.3 1.9 28.3z"/><path class="st2" d="M62.1 22.7c7-.5 11.6-5 18.3-5.5 7.1-.6 13.2.3 20.3-.4 6.3-.6 13-3 19.2-3.6 5.2-.5 10 .7 15.3.3 1.6-.1 3.2 0 4.8.3 3.6.7 5.2 4.5 5.5 7.7.5 4.7-1.3 9.3-1.6 14-.3 4.5 1.3 14.1 5 13.5 3.4 6.4 4.1 7.3 1.8 8.4-2.2 1.1-5.1-3.2-5.6-3.5-.4-.3-.6-.8-.7-1.2-1.2-4.2-2.5-8.4-3-12.7-.5-4.3 0-8.4.8-12.6.4-2 .4-5-.8-6.7-1-1.4-1.5-1.6-3.1-1.7-.1 0 1.9 4.1 1.9 4.4.5 4.9-3 6.4-2.8 11.2.3 6.8-5.3 13.1-3.2 17.5 3 6.5 3 16.9 2.5 24-.3 4.1-.7 8.2-1.1 12.4 0 .2-.8.4-.8.7-.3 2.6-2.4 4.6-5 3.9-1.8-.4-1.6-2.4-1.1-4.2.1-.3-1-.6-1-.9.9-3 1.8-6 2.4-9.1 1.1-6-1.1-11.2-5-15.6-.6-.7-1.3-1.4-2-2-.1-.1-.5-.1-.5 0-3 6.9-6 13.8-9 20.8-1 2.3-1.2 4.7-2.3 7-.1.2-1 .4-1.1.7-.5 1.1-.3 2.3-1.2 3.2-1 1-3.7.9-4.9.3-1.1-.6-.4-2-.3-3.1 0-.4-.5-.8-.3-1.1l.7-1c3.9-6 4.7-12.6 3.4-19.5-.7-3.9-2.1-7.7-3.1-11.5l-.4-.8c-.1.2-.2.5-.4.7-1 .8-1.9 2-3.1 2.4-4 1.2-6.4.9-10.5 1.7-2.3.4-7-2.1-7.4-1-.3.7 1.8 5.8 1.6 7.6-.7 6.5-.6 13-.1 19.5l-.7 1.1c.1 1.3 1.1 5.2-3.5 5-3.5-.1-2.7-3.5-2.6-5.1l-.8-.7c.5-7.4-.4-14.5-5-20.6l-.5-.5-.1.8c-.1 7-.8 14-2.2 20.9l-.8.4c-.4 1.6.7 4.8-3.7 4.9-4.2.1-3.1-3.3-2.8-4.8 0-.1-.7-.5-.7-.8 0-.2.1-.4.1-.5 1-6.5 1.8-12.5 1.3-19.1-.1-1.8-.6-3.6-1-5.3-.4-1.5-1.5-2.4-2.9-3.2-1.7-1-3.3-2.4-4.4-4-3.3-5.2-6.4-10.6-9.6-15.9-.4-.7-.7-.9-1.5-.8-6 .8-11.9 1.5-18 .8-2.5-.3-4.1-1.6-5.2-3.9-1.6-3.4-1.7-3.4 1-5.8 5.1-4.7 10.3-9.3 15.5-13.9.6-.5 3-5.1 5.4-6.5.7-.4 1-.2 1.4.4.8 1.3 1.5 3.1 2.7 3.5 1.1.4 2.8-.8 4.2-1.3 1.2-.4 2.4-.8 3.6-1.4.7-.3 1-.1 1.1.6.9 3-.3 5.6-3.4 7.5-.3.2-.5.4-.7.6.3.1 2.5 1.4 2.8 1.4 2.9-.2 6.6 1.5 8.9 1.7z" id="iMTif4.tif"/></svg>