<svg xmlns="http://www.w3.org/2000/svg" xmlns:xlink="http://www.w3.org/1999/xlink" width="329" height="325" viewBox="0 0 329 325"><style type="text/css">.st0{clip-path:url(#SVGID_2_);} .st1{fill:#33B692;}</style><defs><path id="SVGID_1_" d="M277 315h-220c-22 0-40-18-40-40v-220c0-22 18-40 40-40h220c22 0 40 18 40 40v220c0 22-18 40-40 40z"/></defs><clipPath id="SVGID_2_"><use xlink:href="#SVGID_1_" overflow="visible"/></clipPath><path class="st1" d="M17 15v300h300v-300h-300zm229.5 109.2c.1 1.8.1 3.5.1 5.3 0 54.2-41.3 116.7-116.7 116.7-23.2 0-44.7-6.8-62.9-18.4 3.2.4 6.5.6 9.8.6 19.2 0 36.9-6.6 51-17.6-18-.3-33.1-12.2-38.3-28.5 2.5.5 5.1.7 7.7.7 3.7 0 7.4-.5 10.8-1.4-18.8-3.7-33-20.3-33-40.2v-.5c5.5 3.1 11.9 4.9 18.6 5.1-11-7.4-18.3-19.9-18.3-34.2 0-7.5 2-14.6 5.6-20.6 20.2 24.8 50.5 41.2 84.6 42.9-.7-3-1.1-6.1-1.1-9.4 0-22.7 18.4-41 41-41 11.8 0 22.5 5 30 13 9.3-1.8 18.1-5.3 26.1-10-3.1 9.6-9.6 17.6-18 22.7 8.3-1 16.2-3.2 23.6-6.5-5.6 8.3-12.6 15.5-20.6 21.3z"/></svg>